<svg width="14" height="14" viewBox="0 0 14 14" fill="none" xmlns="http://www.w3.org/2000/svg">
<path fill-rule="evenodd" clip-rule="evenodd" d="M10.5428 13.9457C9.1835 13.6052 6.40067 12.645 3.87783 10.1222C1.355 7.59935 0.394859 4.81651 0.0542774 3.45717C-0.141446 2.67598 0.211005 1.92215 0.808626 1.49528L2.37533 0.376196C3.29203 -0.278581 4.56727 -0.0563925 5.2085 0.86983L6.19482 2.29455C6.61351 2.89933 6.4691 3.72822 5.87055 4.15575L5.08408 4.71753C5.20311 5.17283 5.57332 6.10784 6.73275 7.26726C7.89218 8.42669 8.82719 8.79686 9.28248 8.9159L9.84423 8.1294C10.2718 7.53091 11.1007 7.38644 11.7054 7.80512L13.1302 8.79148C14.0564 9.43276 14.2786 10.7079 13.6238 11.6246L12.5047 13.1914C12.0778 13.789 11.324 14.1415 10.5428 13.9457ZM4.82947 9.17053C7.12371 11.4648 9.65548 12.336 10.8699 12.6403C11.0474 12.6847 11.262 12.6157 11.4096 12.4091L12.5287 10.8424C12.7469 10.5369 12.6729 10.1118 12.3641 9.89801L10.9394 8.91166L10.3365 9.75569C10.0902 10.1006 9.63455 10.3711 9.10403 10.2567C8.44188 10.1138 7.21785 9.65563 5.78112 8.21889C4.34438 6.78216 3.88619 5.55814 3.74332 4.89599C3.62886 4.36547 3.89939 3.90984 4.24431 3.66347L5.08832 3.06061L4.10197 1.63589C3.88822 1.32714 3.46314 1.25308 3.15758 1.47134L1.59087 2.59042C1.38426 2.738 1.31528 2.95259 1.35975 3.13009C1.66403 4.34452 2.53525 6.8763 4.82947 9.17053Z" fill="white"/>
</svg>
